<svg xmlns="http://www.w3.org/2000/svg" width="16" height="16" fill="none" xmlns:v="https://vecta.io/nano"><path fill-rule="evenodd" d="M14.512 6.648h-4.091c-.739 0-1.136.682-1.08 1.364a1.08 1.08 0 0 0 1.08 1.08h2.386c-.114.966-1.534 2.955-2.443 1.648L7.466 5.227c-.227-.398-.057-.909.398-1.136.966-.455 2.273-.398 3.182.114.511.284 1.08.227 1.477-.17l.284-.284c1.307-1.705-2.216-2.5-3.523-2.5-2.727 0-5 1.648-5.966 4.034-.341.795-.568 1.705-.568 2.557l-2.273.114c-.114 0-.227.114-.227.227s.114.227.227.227l2.273-.114c.057 1.818 1.193 3.75 2.671 4.716l-1.25 1.932c-.057.114-.057.227.057.284s.227 0 .341-.114l1.193-1.932h0l1.023.455c4.375 1.818 8.978-1.193 8.693-6.08.057-.511-.398-.909-.966-.909zm-9.943 1.42c.251 0 .455-.204.455-.455s-.204-.455-.455-.455-.455.204-.455.455.204.455.455.455zm2.5 3.466c0 .251-.204.454-.455.454s-.455-.203-.455-.454.204-.455.455-.455.455.204.455.455z" fill="#36db85"/></svg>